Coordinates
version=1
nRows=27
nColumns=12
inDegrees=yes

Units are S.I. units (second, meters, Newtons, ...)
Angles are in degrees

endheader
time	SC_y	SC_z	SC_x	AC_y	AC_z	AC_x	GH_y	GH_z	GH_yy	EL_x	PS_y
       0.0              -25.44          18.69          51.55          50.35         -12.84         -11.64          31.36          51.29         -137.9          100.0          150.6
  0.001864              -25.44          18.69          51.56          50.35         -12.84         -11.64          31.34          51.29         -137.8          100.0          150.6
  0.003729              -25.44          18.68          51.56          50.34         -12.84         -11.64          31.33          51.29         -137.8          100.1          150.6
  0.005593              -25.44          18.68          51.57          50.34         -12.83         -11.64          31.31          51.29         -137.8          100.1          150.5
  0.007457              -25.44          18.68          51.57          50.34         -12.83         -11.64          31.29          51.29         -137.7          100.1          150.5
  0.009322              -25.44          18.68          51.58          50.34         -12.82         -11.64          31.27          51.28         -137.7          100.1          150.5
   0.01119              -25.44          18.68          51.58          50.33         -12.82         -11.64          31.25          51.28         -137.7          100.1          150.5
   0.01305              -25.44          18.68          51.59          50.33         -12.82         -11.64          31.22          51.28         -137.6          100.1          150.4
   0.01491              -25.44          18.68          51.59          50.33         -12.81         -11.64           31.2          51.28         -137.6          100.1          150.4
   0.01678              -25.44          18.68           51.6          50.32         -12.81         -11.64          31.17          51.28         -137.5          100.1          150.4
   0.01864              -25.44          18.67          51.61          50.32          -12.8         -11.64          31.14          51.28         -137.5          100.1          150.3
   0.02051              -25.44          18.67          51.62          50.32          -12.8         -11.64          31.11          51.28         -137.4          100.1          150.3
   0.02237              -25.44          18.67          51.63          50.31         -12.79         -11.64          31.08          51.28         -137.3          100.1          150.3
   0.02424              -25.44          18.67          51.63          50.31         -12.78         -11.64          31.05          51.27         -137.3          100.1          150.2
    0.0261              -25.45          18.67          51.64           50.3         -12.78         -11.64          31.01          51.27         -137.2          100.1          150.2
   0.02796              -25.45          18.66          51.66           50.3         -12.77         -11.64          30.97          51.27         -137.1          100.2          150.1
   0.02983              -25.45          18.66          51.67          50.29         -12.76         -11.64          30.92          51.27         -137.1          100.2          150.1
   0.03169              -25.45          18.66          51.68          50.29         -12.75         -11.64          30.87          51.27         -137.0          100.2          150.0
   0.03356              -25.45          18.66          51.69          50.28         -12.74         -11.64          30.82          51.26         -136.9          100.2          149.9
   0.03542              -25.45          18.65          51.71          50.27         -12.73         -11.64          30.76          51.26         -136.7          100.2          149.9
   0.03729              -25.45          18.65          51.73          50.26         -12.72         -11.64          30.69          51.26         -136.6          100.2          149.8
   0.03915              -25.46          18.65          51.74          50.26         -12.71         -11.64          30.62          51.25         -136.5          100.3          149.7
   0.04101              -25.46          18.64          51.77          50.25         -12.69         -11.64          30.54          51.25         -136.4          100.3          149.6
   0.04288              -25.46          18.64          51.79          50.23         -12.68         -11.64          30.46          51.25         -136.2          100.3          149.5
   0.04474              -25.46          18.63          51.81          50.22         -12.66         -11.64          30.36          51.24         -136.0          100.3          149.4
   0.04661              -25.47          18.62          51.84          50.21         -12.64         -11.64          30.25          51.24         -135.8          100.4          149.2
   0.04847              -25.47          18.62          51.87          50.19         -12.61         -11.63          30.13          51.23         -135.6          100.4          149.1
